<svg width="160" height="104" viewBox="0 0 160 104" fill="none" xmlns="http://www.w3.org/2000/svg">
<g id="Frame">
<path id="Vector" d="M142.013 44.4599L138.824 64.5222C138.781 64.8002 138.968 65.0621 139.246 65.1102C139.273 65.1156 139.305 65.1156 139.332 65.1156H143.108C143.386 65.1156 143.621 64.9178 143.664 64.6452L146.853 44.5829C146.896 44.3049 146.709 44.0429 146.431 43.9948C146.404 43.9895 146.372 43.9895 146.346 43.9895H142.569C142.291 43.9841 142.051 44.1819 142.013 44.4599ZM137.98 50.3134H134.395C134.123 50.3081 133.883 50.5112 133.84 50.7838L133.722 51.5215C133.722 51.5215 130.939 48.5012 126.014 50.5433C123.188 51.714 121.831 54.1249 121.254 55.8943C121.254 55.8943 119.422 61.272 123.567 64.2282C123.567 64.2282 127.413 67.0721 131.74 64.0518L131.666 64.5222C131.628 64.7521 131.751 64.9712 131.959 65.0675C132.029 65.0995 132.104 65.1156 132.179 65.1156H135.763C136.041 65.1209 136.276 64.9178 136.319 64.6452L138.498 50.9068C138.525 50.7571 138.477 50.6074 138.381 50.4898C138.274 50.3776 138.13 50.3134 137.98 50.3134ZM132.707 57.9096C132.568 58.8718 132.082 59.7432 131.345 60.374C130.603 61.0048 129.657 61.3415 128.685 61.3308C128.306 61.3362 127.921 61.2774 127.558 61.1651C126.008 60.6733 125.127 59.1979 125.383 57.5942C125.522 56.632 126.008 55.7606 126.751 55.1299C127.494 54.4991 128.439 54.1569 129.411 54.1676C129.791 54.1623 130.175 54.2211 130.538 54.3334C132.088 54.8305 132.964 56.3059 132.707 57.9096ZM113.572 58.2892C115.517 58.2892 117.397 57.5996 118.871 56.3433C120.346 55.0924 121.318 53.3498 121.623 51.4414C122.248 47.4695 119.123 44.0002 114.694 44.0002H107.557C107.279 44.0002 107.044 44.198 107.001 44.4706L103.807 64.5329C103.769 64.7628 103.892 64.9819 104.101 65.0781C104.17 65.1102 104.245 65.1263 104.32 65.1263H108.097C108.374 65.1263 108.609 64.9285 108.652 64.6558L109.587 58.7649C109.63 58.4923 109.865 58.2892 110.143 58.2945L113.572 58.2892ZM116.729 51.2596C116.494 52.7297 115.351 53.8095 113.166 53.8095H110.367L111.216 48.4638H113.962C116.227 48.4692 116.964 49.7949 116.729 51.2596Z" fill="white"/>
<path id="Vector_2" d="M99.5012 50.6556L95.1795 57.9043L92.9839 50.709C92.9144 50.4738 92.6954 50.3134 92.4497 50.3134H88.55C88.3416 50.3081 88.16 50.4631 88.1333 50.6662C88.1226 50.7304 88.1333 50.7999 88.1547 50.864L92.0864 62.9827L88.5286 68.6918C88.4057 68.8843 88.4592 69.1355 88.6515 69.2585C88.6568 69.2638 88.6622 69.2692 88.6728 69.2692C88.7369 69.3066 88.8117 69.328 88.8865 69.3226H93.0907C93.3365 69.3226 93.5608 69.1943 93.689 68.9859L104.667 50.9442C104.747 50.8159 104.752 50.6556 104.678 50.5219C104.603 50.3883 104.459 50.3081 104.309 50.3134H100.11C99.8538 50.3188 99.6294 50.4471 99.5012 50.6556ZM86.3384 50.3134H82.7538C82.4761 50.3134 82.241 50.5112 82.1983 50.7839L82.0807 51.5216C82.0807 51.5216 79.2975 48.5013 74.3668 50.5433C71.5409 51.714 70.184 54.1249 69.607 55.8943C69.607 55.8943 67.7747 61.2721 71.9148 64.2282C71.9148 64.2282 75.7611 67.0721 80.0881 64.0518L80.0134 64.5222C79.976 64.7521 80.0988 64.9713 80.3072 65.0675C80.3766 65.0996 80.4514 65.1156 80.5262 65.1156H84.1107C84.3832 65.1156 84.6236 64.9178 84.6663 64.6452L86.8459 50.9068C86.8833 50.6769 86.7604 50.4524 86.552 50.3615C86.4826 50.3295 86.4078 50.3134 86.3384 50.3134ZM81.0604 57.9096C80.9215 58.8665 80.4354 59.7432 79.6928 60.3686C78.9503 60.9994 78.0047 61.3416 77.0325 61.3309C76.6532 61.3362 76.2739 61.2774 75.9053 61.1651C74.3615 60.6733 73.4747 59.1979 73.7311 57.5942C73.87 56.632 74.3615 55.7553 75.104 55.1299C75.8466 54.4991 76.7974 54.1623 77.7697 54.173C78.149 54.1677 78.5336 54.2265 78.8969 54.3387C80.4461 54.8305 81.3222 56.3059 81.0604 57.9096ZM61.9251 58.2892C63.8643 58.2892 65.7394 57.5996 67.2191 56.338C68.6935 55.0871 69.6658 53.3498 69.9649 51.436C70.5953 47.4642 67.4649 43.9949 63.0363 43.9949H55.8993C55.6215 43.9895 55.3865 44.1926 55.3437 44.4653L52.1599 64.5222C52.1225 64.7521 52.2453 64.9766 52.4537 65.0675C52.5231 65.0996 52.5979 65.1156 52.6727 65.1156H56.4495C56.7273 65.1156 56.9624 64.9178 57.0051 64.6452L57.94 58.7542C57.9827 58.4816 58.2178 58.2785 58.4955 58.2838L61.9251 58.2892ZM65.0876 51.2596C64.8526 52.7297 63.7094 53.8095 61.5245 53.8095H58.7253L59.5746 48.4638H62.3205C64.5855 48.4692 65.3227 49.7949 65.0876 51.2596Z" fill="#003087"/>
<path id="Vector_3" d="M37.512 45.0266C37.5974 40.595 33.9435 37.1952 28.9219 37.1952H18.537C18.0348 37.1952 17.6128 37.5587 17.5327 38.0558L13.3712 64.0786C13.3017 64.5276 13.6062 64.9499 14.0603 65.0247C14.1031 65.0301 14.1458 65.0354 14.1885 65.0354H20.3426L19.381 71.06C19.3116 71.509 19.6161 71.9313 20.0701 72.0062C20.1129 72.0115 20.1556 72.0169 20.1983 72.0169H25.2092C25.4496 72.0169 25.6686 71.9313 25.8502 71.771C26.0319 71.616 26.0639 71.3968 26.1013 71.1562L27.5704 62.4909C27.6078 62.2503 27.7306 61.9403 27.9123 61.7853C28.0939 61.6302 28.2542 61.5394 28.4999 61.5394H31.5662C36.4863 61.5394 40.6584 58.0433 41.417 53.1734C41.9619 49.7254 40.4821 46.5822 37.512 45.0266Z" fill="#001C64"/>
<path id="Vector_4" d="M21.6674 55.4346L20.1395 65.1637L19.178 71.2631C19.1085 71.7122 19.413 72.1345 19.8671 72.2093C19.9098 72.2147 19.9525 72.22 19.9953 72.22H25.3C25.8021 72.22 26.2241 71.8565 26.3043 71.3594L27.7039 62.4909C27.784 61.9991 28.206 61.6356 28.7082 61.6302H31.8333C36.7533 61.6302 40.9255 58.0379 41.6894 53.1734C42.2289 49.7201 40.4928 46.5768 37.5226 45.0212C37.5172 45.3901 37.4852 45.7536 37.4264 46.1171C36.6625 50.9817 32.4904 54.5739 27.5757 54.5739H22.6877C22.1748 54.5793 21.7475 54.9428 21.6674 55.4346Z" fill="#0070E0"/>
<path id="Vector_5" d="M20.1342 65.1638H13.9642C13.5101 65.1638 13.1415 64.7949 13.1415 64.3405C13.1415 64.2978 13.1468 64.255 13.1522 64.2122L17.3136 37.8046C17.3938 37.3128 17.8158 36.9493 18.3179 36.944H28.9273C33.9488 36.944 37.6028 40.6004 37.5173 45.032C36.2673 44.3744 34.7982 44.0003 33.1902 44.0003H24.3384C23.8363 44.0003 23.4143 44.3638 23.3341 44.8609L21.6674 55.4453L20.1342 65.1638Z" fill="#003087"/>
</g>
</svg>
