<svg width="26" height="26" viewBox="0 0 26 26" fill="none" xmlns="http://www.w3.org/2000/svg">
<path id="Vector" d="M19.0135 6.5671C17.3748 5.03268 15.2482 4.19156 12.992 4.19355C8.93173 4.19711 5.42645 6.98111 4.45863 10.8429C4.38818 11.1241 4.13772 11.3226 3.84789 11.3226H0.844109C0.451069 11.3226 0.152488 10.9658 0.225194 10.5795C1.35939 4.5565 6.64746 0 13 0C16.4832 0 19.6463 1.37003 21.9802 3.60042L23.8524 1.72827C24.6449 0.935738 26 1.49704 26 2.61788V9.64516C26 10.34 25.4368 10.9032 24.7419 10.9032H17.7146C16.5938 10.9032 16.0325 9.54813 16.825 8.75555L19.0135 6.5671ZM1.25806 15.0968H8.28535C9.40618 15.0968 9.96749 16.4519 9.17496 17.2444L6.98645 19.433C8.62519 20.9674 10.752 21.8085 13.0082 21.8065C17.0664 21.8028 20.5731 19.0207 21.5414 15.1572C21.6118 14.876 21.8623 14.6775 22.1521 14.6775H25.1559C25.549 14.6775 25.8476 15.0343 25.7749 15.4206C24.6406 21.4435 19.3525 26 13 26C9.51684 26 6.3537 24.63 4.01978 22.3996L2.14762 24.2717C1.35509 25.0643 0 24.503 0 23.3821V16.3548C0 15.66 0.563246 15.0968 1.25806 15.0968Z" fill="white"/>
</svg>
