<svg width="94" height="62" viewBox="0 0 94 62" fill="none" xmlns="http://www.w3.org/2000/svg">
<g id="v-card_visa" clip-path="url(#clip0_1058_6308)">
<path id="Vector" d="M5.34756 0.776001H88.6525C91.2825 0.776001 93.4127 2.94004 93.4127 5.61184V56.3882C93.4127 59.06 91.2825 61.224 88.6525 61.224H5.34756C2.71751 61.224 0.58728 59.06 0.58728 56.3882V5.61184C0.58728 2.94004 2.71751 0.776001 5.34756 0.776001Z" fill="#0A4693"/>
<path id="Vector_2" d="M35.4801 42.9325L39.455 19.2731H45.8099L41.8232 42.9325H35.4801ZM64.7678 19.7809C63.5063 19.2973 61.5427 18.7896 59.0792 18.7896C52.8075 18.7896 48.3805 22.0054 48.3448 26.5994C48.3091 29.9966 51.4985 31.8947 53.9143 33.0311C56.3778 34.1917 57.2108 34.9292 57.1989 35.9568C57.187 37.5405 55.2234 38.2659 53.4026 38.2659C50.8558 38.2659 49.5111 37.9032 47.4284 37.0207L46.6073 36.6459L45.7147 41.9411C47.2023 42.6061 49.9395 43.1743 52.7837 43.1985C59.46 43.1985 63.7919 40.031 63.8395 35.1105C63.8633 32.4145 62.1734 30.3714 58.508 28.6788C56.2945 27.5787 54.9259 26.8533 54.9378 25.7411C54.9378 24.7618 56.0921 23.71 58.5794 23.71C60.6501 23.6737 62.1615 24.1332 63.3278 24.6167L63.899 24.8948L64.7678 19.7809ZM81.1074 19.2731H76.2043C74.681 19.2731 73.5505 19.6963 72.884 21.2317L63.4468 42.9204H70.1112C70.1112 42.9204 71.206 40.0068 71.444 39.3661C72.17 39.3661 78.6559 39.3781 79.5722 39.3781C79.7626 40.2123 80.3458 42.9204 80.3458 42.9204H86.2366L81.1074 19.2731ZM73.3244 34.5544C73.848 33.1883 75.8592 27.9414 75.8592 27.9414C75.8235 28.0018 76.3828 26.5753 76.7042 25.6806L77.1326 27.7238C77.1326 27.7238 78.3465 33.3696 78.6083 34.5544H73.3244ZM30.0891 19.2731L23.8769 35.4128L23.2105 32.1365C22.0561 28.3524 18.4502 24.2541 14.4159 22.2109L20.1044 42.8962L26.8283 42.8841L36.8249 19.261L30.0891 19.2731Z" fill="white"/>
<path id="Vector_3" d="M18.0694 19.2731H7.83477L7.75146 19.7687C15.713 21.7273 20.985 26.4664 23.1748 32.1485L20.9493 21.2679C20.5685 19.7687 19.4499 19.3214 18.0694 19.2731Z" fill="#F2AE13"/>
</g>
<defs>
<clipPath id="clip0_1058_6308">
<rect width="92.8255" height="60.448" fill="white" transform="translate(0.58728 0.776001)"/>
</clipPath>
</defs>
</svg>
